<?xml version="1.0" standalone="no"?><!DOCTYPE svg PUBLIC "-//W3C//DTD SVG 1.1//EN" "http://www.w3.org/Graphics/SVG/1.1/DTD/svg11.dtd"><svg t="1512119341937" class="icon" style="" viewBox="0 0 1092 1024" version="1.1" xmlns="http://www.w3.org/2000/svg" p-id="1229" xmlns:xlink="http://www.w3.org/1999/xlink" width="68.25" height="64"><defs><style type="text/css"></style></defs><path d="M921.37672 136.500255H170.625318a34.125064 34.125064 0 0 0-34.125063 34.125063v477.750892a34.125064 34.125064 0 0 0 34.125063 34.125064h750.751402a34.125064 34.125064 0 0 0 34.125063-34.125064V170.625318a34.125064 34.125064 0 0 0-34.125063-34.125063z m0 511.875955H170.625318V170.625318h750.751402z" fill="#ffffff" p-id="1230"></path><path d="M989.626847 0H102.375191a102.375191 102.375191 0 0 0-102.375191 102.375191v682.501274a102.375191 102.375191 0 0 0 102.375191 102.375191h341.250637v41.632578L230.685431 955.501783A34.125064 34.125064 0 0 0 238.875446 1023.751911h614.251146a34.125064 34.125064 0 0 0 8.190016-68.250128L648.37621 928.542983V887.251656h341.250637a102.375191 102.375191 0 0 0 102.375191-102.375191V102.375191a102.375191 102.375191 0 0 0-102.375191-102.375191z m34.125064 784.876465a34.125064 34.125064 0 0 1-34.125064 34.125064H102.375191a34.125064 34.125064 0 0 1-34.125064-34.125064V102.375191a34.125064 34.125064 0 0 1 34.125064-34.125064h887.251656a34.125064 34.125064 0 0 1 34.125064 34.125064z" fill="#ffffff" p-id="1231"></path></svg>