<?xml version="1.0" standalone="no"?><!DOCTYPE svg PUBLIC "-//W3C//DTD SVG 1.1//EN" "http://www.w3.org/Graphics/SVG/1.1/DTD/svg11.dtd"><svg t="1512118449310" class="icon" style="" viewBox="0 0 1024 1024" version="1.1" xmlns="http://www.w3.org/2000/svg" p-id="962" xmlns:xlink="http://www.w3.org/1999/xlink" width="64" height="64"><defs><style type="text/css"></style></defs><path d="M753.100529 326.885362v252.839506h-487.619048M464.141093 673.636684v99.329806h90.299824v-108.359788z" fill="#ffffff" p-id="963"></path><path d="M845.206349 684.472663H178.793651c-10.835979 0-18.059965-7.223986-18.059965-18.059965V242.003527c0-10.835979 7.223986-18.059965 18.059965-18.059964h664.606702c10.835979 0 18.059965 7.223986 18.059964 18.059964v424.409171c1.805996 10.835979-7.223986 18.059965-16.253968 18.059965z m-648.352733-36.119929h628.486772V260.063492H196.853616v388.289242z" fill="#ffffff" p-id="964"></path><path d="M433.439153 339.527337h-48.761904c-10.835979 0-18.059965-7.223986-18.059965-18.059965s7.223986-18.059965 18.059965-18.059965H433.439153c10.835979 0 18.059965 7.223986 18.059965 18.059965s-9.029982 18.059965-18.059965 18.059965z" fill="#ffffff" p-id="965"></path><path d="M758.518519 605.008818H265.481481c-10.835979 0-18.059965-7.223986-18.059964-18.059964V321.467372c0-10.835979 7.223986-18.059965 18.059964-18.059965h45.149912c10.835979 0 18.059965 7.223986 18.059965 18.059965s-7.223986 18.059965-18.059965 18.059965h-27.089947v229.361552H740.458554V339.527337H487.619048c-10.835979 0-18.059965-7.223986-18.059965-18.059965s7.223986-18.059965 18.059965-18.059965h270.899471c10.835979 0 18.059965 7.223986 18.059964 18.059965v265.481482c0 10.835979-9.029982 18.059965-18.059964 18.059964zM565.276896 800.056437h-104.747795c-10.835979 0-18.059965-7.223986-18.059965-18.059964v-111.971782c0-10.835979 7.223986-18.059965 18.059965-18.059964h104.747795c10.835979 0 18.059965 7.223986 18.059965 18.059964v111.971782c0 9.029982-9.029982 18.059965-18.059965 18.059964z m-88.493827-36.119929h68.627866v-75.851852h-68.627866v75.851852z" fill="#ffffff" p-id="966"></path><path d="M664.606702 800.056437h-307.0194c-10.835979 0-18.059965-7.223986-18.059965-18.059964s7.223986-18.059965 18.059965-18.059965h307.0194c10.835979 0 18.059965 7.223986 18.059965 18.059965s-7.223986 18.059965-18.059965 18.059964z" fill="#ffffff" p-id="967"></path></svg>