<?xml version="1.0" standalone="no"?><!DOCTYPE svg PUBLIC "-//W3C//DTD SVG 1.1//EN" "http://www.w3.org/Graphics/SVG/1.1/DTD/svg11.dtd"><svg t="1512119261590" class="icon" style="" viewBox="0 0 1024 1024" version="1.1" xmlns="http://www.w3.org/2000/svg" p-id="1036" xmlns:xlink="http://www.w3.org/1999/xlink" width="64" height="64"><defs><style type="text/css"></style></defs><path d="M512 0A512 512 0 1 0 1024 512 512 512 0 0 0 512 0zM957.935484 495.483871h-198.193549a657.341935 657.341935 0 0 0-37.987096-207.112258 541.729032 541.729032 0 0 0 123.540645-72.670968A443.292903 443.292903 0 0 1 957.935484 495.483871zM495.483871 957.935484a526.534194 526.534194 0 0 1-134.771613-174.08A511.339355 511.339355 0 0 1 495.483871 759.741935v198.193549z m34.683871-891.870968a533.470968 533.470968 0 0 1 147.654193 202.487742A511.009032 511.009032 0 0 1 528.516129 297.290323V66.064516z m54.833548 5.615484a444.614194 444.614194 0 0 1 236.510968 119.246452 506.054194 506.054194 0 0 1-113.300645 66.064516 581.037419 581.037419 0 0 0-122.88-184.32zM495.483871 66.064516v231.225807a511.009032 511.009032 0 0 1-149.305806-27.086452A533.470968 533.470968 0 0 1 493.832258 66.064516zM315.458065 257.981935a506.054194 506.054194 0 0 1-113.300646-66.064516 444.614194 444.614194 0 0 1 236.510968-119.246451 581.037419 581.037419 0 0 0-123.210322 185.310967z m18.498064 41.950968A542.059355 542.059355 0 0 0 495.483871 330.322581v165.16129H297.290323a624.64 624.64 0 0 1 36.665806-195.550968zM495.483871 528.516129v198.193548a542.059355 542.059355 0 0 0-149.966452 25.434839A620.015484 620.015484 0 0 1 297.290323 528.516129z m-56.815484 422.812903a443.953548 443.953548 0 0 1-216.030968-100.748387A503.741935 503.741935 0 0 1 328.010323 792.774194a572.11871 572.11871 0 0 0 110.658064 158.554838zM528.516129 957.935484v-198.193549a511.339355 511.339355 0 0 1 136.423226 22.461936A526.534194 526.534194 0 0 1 530.167742 957.935484z m167.473548-165.16129a503.741935 503.741935 0 0 1 105.372904 56.154838 443.953548 443.953548 0 0 1-216.030968 100.748387A572.11871 572.11871 0 0 0 695.989677 792.774194z m-17.837419-41.620646A542.059355 542.059355 0 0 0 528.516129 726.709677v-198.193548h198.193548a620.015484 620.015484 0 0 1-48.227096 224.289032zM528.516129 495.483871v-165.16129a542.059355 542.059355 0 0 0 161.527742-29.729033A624.64 624.64 0 0 1 726.709677 495.483871zM179.365161 216.030968a541.729032 541.729032 0 0 0 123.540645 72.670967A657.341935 657.341935 0 0 0 264.258065 495.483871H66.064516a443.292903 443.292903 0 0 1 113.300645-279.452903zM66.064516 528.516129h198.193549a651.726452 651.726452 0 0 0 49.548387 235.850323A537.434839 537.434839 0 0 0 198.193548 828.11871 444.614194 444.614194 0 0 1 66.064516 528.516129z m759.741936 299.602581a537.434839 537.434839 0 0 0-116.934194-63.752258A651.726452 651.726452 0 0 0 759.741935 528.516129h198.193549a444.614194 444.614194 0 0 1-132.129032 299.602581z" fill="#ffffff" p-id="1037"></path></svg>